<?xml version="1.0" encoding="iso-8859-1"?>
<!-- Generator: Adobe Illustrator 18.1.1, SVG Export Plug-In . SVG Version: 6.00 Build 0)  -->
<!DOCTYPE svg PUBLIC "-//W3C//DTD SVG 1.1//EN" "http://www.w3.org/Graphics/SVG/1.1/DTD/svg11.dtd">
<svg version="1.1" id="Layer_1" xmlns="http://www.w3.org/2000/svg" xmlns:xlink="http://www.w3.org/1999/xlink" x="0px" y="0px"
	 viewBox="530 311.918 220 176.164" style="enable-background:new 530 311.918 220 176.164;" xml:space="preserve">
<g>
	<polygon style="fill:#29BEB7;" points="744.517,422.245 530.22,486.54 535.418,379.021 749.78,313.455 	"/>
	<polygon style="fill:#FF0049;" points="744.517,422.245 531.401,462.134 535.418,379.021 748.599,337.865 	"/>
	<g>
		<path style="fill:#FFFFFF;" d="M554.529,406.348l-0.526,0.099l-2.204,0.411l-0.493,10.654l-8.818,1.645l1.935-35.077l10.208-1.907
			c5.129-0.956,8.738-0.489,11.242,1.227c2.048,1.404,3.347,3.592,3.866,6.372c0.644,3.45,0.096,6.629-1.611,9.178
			c-0.973,1.424-2.429,2.934-4.991,4.356l6.382,10.811l-9.585,1.787L554.529,406.348z M555.573,398.912
			c2.158-0.403,3.69-1.234,4.593-2.494c0.693-1.071,0.952-2.608,0.702-3.95c-0.199-1.055-0.674-1.757-1.405-2.218
			c-0.807-0.593-2.019-0.713-3.648-0.411l-3.066,0.574l-0.434,9.105L555.573,398.912z"/>
		<path style="fill:#FFFFFF;" d="M572.488,403.443c-0.331-1.773-0.356-3.505-0.243-5.559l0.984-19.178l8.867-1.656l-1.053,19.888
			c-0.053,1.301-0.05,2.389,0.139,3.397c0.457,2.443,2.202,3.556,4.598,3.109c1.39-0.259,2.507-0.915,3.21-1.94
			c0.817-1.193,1.229-2.709,1.385-5.066l1.116-21.139l8.819-1.647l-1.159,22.238c-0.295,4.271-1.188,7.462-2.902,9.965
			c-1.902,2.836-5.054,4.812-9.99,5.734C578.829,412.974,573.713,410.01,572.488,403.443z"/>
		<path style="fill:#FFFFFF;" d="M603.999,372.966l8.291-1.549l9.65,16.898l0.991-18.882l8.675-1.618l-1.936,35.081l-7.813,1.457
			l-10.119-17.554l-0.999,19.628l-8.677,1.62L603.999,372.966z"/>
		<path style="fill:#FFFFFF;" d="M635.44,367.099l8.291-1.548l9.649,16.898l0.991-18.884l8.675-1.618l-1.936,35.079l-7.811,1.457
			l-10.121-17.554l-0.999,19.631l-8.675,1.618L635.44,367.099z"/>
		<path style="fill:#FFFFFF;" d="M667.12,361.187l8.773-1.635l-1.935,35.077l-8.819,1.647L667.12,361.187z"/>
		<path style="fill:#FFFFFF;" d="M679.966,358.79l8.293-1.546l9.648,16.898l0.991-18.884l8.677-1.618l-1.938,35.079l-7.811,1.459
			l-10.121-17.554l-0.999,19.626l-8.677,1.62L679.966,358.79z"/>
		<path style="fill:#FFFFFF;" d="M709.589,374.293c-1.028-5.511-0.064-12.039,3.182-16.712c2.728-3.981,6.867-6.788,12.138-7.77
			c5.417-1.011,9.741,0.365,12.612,2.457l-4.608,7.208c-1.916-1.229-4.313-2.122-7.047-1.611c-2.443,0.456-4.326,1.799-5.565,3.666
			c-1.948,2.843-2.449,7.352-1.82,10.708c0.805,4.313,3.852,6.024,7.159,5.407c1.198-0.223,2.161-0.649,2.874-1.081l0.271-5.457
			l-5.031,0.939l0.454-7.127l13.277-2.478l-1.136,18.366c-2.581,2.117-5.873,3.872-9.995,4.641
			C719.117,386.801,711.352,383.735,709.589,374.293z"/>
	</g>
	<g>
		<path style="fill:#FFFFFF;" d="M577.657,417.143l6.827-1.275c3.296-0.615,5.84-0.341,7.834,0.991
			c1.532,1.085,2.576,2.677,2.996,4.929c0.511,2.73,0.011,5.4-1.491,7.593c-1.732,2.526-4.907,4.448-9.366,5.282l-4.78,0.89
			l-0.552,10.413l-3.094,0.574L577.657,417.143z M584.855,418.752l-4.295,0.802l-0.701,13.182l4.259-0.797
			c3.453-0.644,5.77-2.031,7.045-3.892c1.08-1.573,1.344-3.493,0.961-5.54c-0.276-1.486-0.922-2.489-1.921-3.177
			C588.869,418.418,587.107,418.331,584.855,418.752z"/>
		<path style="fill:#FFFFFF;" d="M599.005,434.441c-0.247-1.326-0.301-2.728-0.185-4.329l0.848-17.076l3.133-0.583l-0.954,17.842
			c-0.051,1.049-0.01,2.163,0.192,3.248c0.6,3.215,3.069,5.081,7.004,4.348c1.928-0.36,3.489-1.358,4.598-2.979
			c1.078-1.573,1.854-3.878,1.986-6.73l0.991-18.308l3.051-0.569l-0.972,18.843c-0.228,3.452-1.042,6.223-2.449,8.27
			c-1.567,2.29-3.904,3.806-6.955,4.375C603.672,441.84,599.906,439.261,599.005,434.441z"/>
		<path style="fill:#FFFFFF;" d="M633.416,424.61l-0.965,0.181l-5.059,0.945l-0.589,11.332l-3.092,0.578l1.624-29.398l7.951-1.484
			c3.176-0.591,5.781-0.206,7.632,1.028c1.447,1.062,2.397,2.588,2.776,4.636c0.504,2.691-0.05,5.081-1.316,6.98
			c-1.273,1.858-3.384,3.249-5.857,4.25l6.951,10.303l-3.453,0.644L633.416,424.61z M632.987,421.866
			c3.255-0.607,5.426-1.887,6.636-3.649c0.973-1.472,1.33-3.117,0.977-5.004c-0.238-1.285-0.852-2.335-1.796-2.948
			c-1.2-0.857-2.936-1.032-5.224-0.603l-5.302,0.989l-0.672,12.219L632.987,421.866z"/>
		<path style="fill:#FFFFFF;" d="M649.273,403.781l6.827-1.273c3.294-0.613,5.84-0.341,7.834,0.991
			c1.534,1.087,2.579,2.677,2.998,4.927c0.511,2.732,0.01,5.402-1.493,7.595c-1.732,2.524-4.907,4.448-9.364,5.28l-4.78,0.891
			l-0.553,10.411l-3.092,0.578L649.273,403.781z M656.475,405.388l-4.299,0.804l-0.699,13.182l4.259-0.795
			c3.453-0.646,5.771-2.035,7.045-3.893c1.078-1.575,1.344-3.493,0.961-5.54c-0.276-1.487-0.922-2.488-1.921-3.175
			C660.485,405.056,658.721,404.97,656.475,405.388z"/>
		<path style="fill:#FFFFFF;" d="M693.443,406.595c0.913,4.902,0.009,10.972-2.762,15.064c-2,2.867-4.783,4.883-8.277,5.535
			c-6.146,1.147-10.944-2.737-12.163-9.285c-0.915-4.902-0.01-10.972,2.804-15.03c1.961-2.862,4.744-4.875,8.24-5.528
			C687.471,396.198,692.227,400.089,693.443,406.595z M687.967,420.253c2.353-3.431,3.09-8.846,2.331-12.903
			c-0.936-5.021-4.305-7.928-8.724-7.102c-2.488,0.464-4.423,1.906-5.847,4.084c-2.36,3.39-3.1,8.764-2.336,12.863
			c0.927,4.982,4.295,7.885,8.713,7.059C684.597,423.791,686.529,422.353,687.967,420.253z"/>
		<path style="fill:#FFFFFF;" d="M695.833,419.409l2.043-2.418c2.535,2.23,5.164,3.4,8.419,2.794
			c3.174-0.593,5.26-3.227,4.749-5.957c-0.367-1.967-1.844-3.189-5.701-4.713c-4.854-1.964-7.045-3.676-7.614-6.726
			c-0.374-2.01,0.091-3.968,1.129-5.532c1.372-2.002,3.361-3.37,6.134-3.888c3.854-0.72,7.148,0.663,9.446,2.519l-1.812,2.54
			c-2.202-1.791-4.668-2.744-7.237-2.264c-3.376,0.629-4.957,3.292-4.523,5.621c0.374,2.01,1.914,3.134,5.959,4.751
			c4.439,1.748,6.765,3.517,7.357,6.691c0.397,2.127-0.06,4.125-1.27,5.889c-1.308,1.906-3.532,3.359-6.262,3.868
			C702.353,423.388,698.597,421.969,695.833,419.409z"/>
		<path style="fill:#FFFFFF;" d="M719.926,390.599l16.99-3.17l-0.199,2.946l-13.897,2.593l-0.555,10.161l12.452-2.322l-0.201,2.946
			l-12.411,2.315l-0.55,10.41l14.097-2.631l-0.199,2.946l-17.151,3.202L719.926,390.599z"/>
	</g>
	<g>
		<path style="fill:#FFFFFF;" d="M544.393,426.783l-1.081,0.202l0.078-1.172l1.068-0.199l0.064-0.973
			c0.06-0.888,0.211-1.491,0.585-2.017c0.374-0.525,0.943-0.858,1.671-0.993c0.524-0.098,1.071-0.079,1.475,0.021l-0.085,1.136
			c-0.422-0.096-0.809-0.111-1.165-0.046c-0.778,0.146-1.163,0.706-1.227,1.769l-0.05,0.867l2.317-0.431l-0.096,1.172l-2.283,0.425
			l-0.438,8.065l-1.27,0.234L544.393,426.783z"/>
		<path style="fill:#FFFFFF;" d="M555.969,427.091c0.301,1.624-0.031,3.313-0.867,4.554c-0.648,0.943-1.573,1.608-2.689,1.815
			c-2.03,0.379-3.613-0.884-4.021-3.066c-0.301-1.626,0.014-3.311,0.869-4.538c0.647-0.943,1.556-1.604,2.674-1.812
			C553.962,423.668,555.558,424.893,555.969,427.091z M554.022,431.112c0.67-0.999,0.917-2.5,0.686-3.736
			c-0.312-1.673-1.349-2.443-2.634-2.202c-0.727,0.135-1.323,0.598-1.75,1.22c-0.674,0.982-0.924,2.464-0.687,3.734
			c0.314,1.673,1.347,2.425,2.632,2.188C552.998,432.179,553.613,431.731,554.022,431.112z"/>
		<path style="fill:#FFFFFF;" d="M557.969,423.093l1.251-0.232l-0.103,1.98c0.629-1.414,1.546-2.496,3.088-2.677l-0.106,1.4
			l-0.084,0.017c-1.64,0.305-2.938,1.702-3.058,4.053l-0.238,4.454l-1.251,0.236L557.969,423.093z"/>
		<path style="fill:#FFFFFF;" d="M566.255,428.392c-0.159-0.864-0.01-1.75,0.471-2.452c0.497-0.721,1.359-1.251,2.459-1.455
			c0.946-0.177,1.868-0.122,2.622-0.016l0.004-0.264c0.012-0.406,0-0.754-0.05-1.023c-0.177-0.946-0.901-1.443-2.253-1.191
			c-0.761,0.142-1.372,0.432-1.996,0.844l-0.502-1.007c0.688-0.444,1.46-0.797,2.459-0.984c1.945-0.363,3.202,0.367,3.484,1.87
			c0.074,0.406,0.081,0.913,0.06,1.459l-0.271,5.302l-1.236,0.23l0.087-1.33c-0.538,0.975-1.289,1.727-2.473,1.95
			C567.767,430.578,566.536,429.897,566.255,428.392z M571.712,426.289l0.051-0.938c-0.651-0.106-1.51-0.12-2.322,0.032
			c-0.761,0.142-1.289,0.502-1.604,0.963c-0.334,0.466-0.445,1.097-0.334,1.69c0.173,0.931,0.897,1.426,1.861,1.244
			C570.648,429.043,571.63,427.738,571.712,426.289z"/>
	</g>
	<polygon style="fill:#FFFFFF;" points="531.906,441.722 531.972,439.134 573.541,431.511 573.47,434.102 	"/>
</g>
</svg>
