<?xml version="1.0" encoding="iso-8859-1"?>
<!-- Generator: Adobe Illustrator 21.1.0, SVG Export Plug-In . SVG Version: 6.00 Build 0)  -->
<!DOCTYPE svg PUBLIC "-//W3C//DTD SVG 1.1//EN" "http://www.w3.org/Graphics/SVG/1.1/DTD/svg11.dtd">
<svg version="1.1" xmlns="http://www.w3.org/2000/svg" xmlns:xlink="http://www.w3.org/1999/xlink" x="0px" y="0px"
	 viewBox="0 0 62.434 62.434" style="enable-background:new 0 0 62.434 62.434;" xml:space="preserve">
<g id="Background">
	<g id="Frame">
	</g>
	<g id="Text">
	</g>
</g>
<g id="White">
	<path id="White_1_" style="fill:#FFFFFF;" d="M58.988,0H3.446C1.542,0,0,1.542,0,3.446v55.542c0,1.903,1.542,3.446,3.446,3.446
		h29.902V38.256h-8.136v-9.423h8.136v-6.949c0-8.064,4.925-12.455,12.119-12.455c3.446,0,6.407,0.257,7.27,0.371v8.427l-4.989,0.002
		c-3.912,0-4.67,1.859-4.67,4.587v6.016h9.331l-1.215,9.423h-8.116v24.178h15.91c1.903,0,3.446-1.543,3.446-3.446V3.446
		C62.434,1.542,60.891,0,58.988,0z"/>
</g>
<g id="Blue">
</g>
</svg>
